# Blender 3.5.1
# www.blender.org
mtllib ship.mtl
o Ship
v -21.805931 3.112111 -12.972636
v -21.805931 -3.112111 -12.972636
v -21.805931 3.112111 12.972636
v -21.805931 -3.112111 12.972636
v 21.805931 2.252017 -3.747090
v 21.805931 -2.252017 -3.747090
v 21.805931 2.252017 3.747090
v 21.805931 -2.252017 3.747090
v -21.805931 3.112111 6.787038
v -21.805931 3.112111 -6.787039
v -21.805931 -3.112111 -6.787038
v -21.805931 -3.112111 6.787039
v 21.805931 2.252017 -1.249030
v 21.805931 2.252017 1.249030
v 21.805931 -2.252017 1.249030
v 21.805931 -2.252017 -1.249030
v -11.184191 3.719886 12.122991
v -11.184191 -3.719886 12.122991
v -11.184191 3.719886 -12.122991
v -11.184191 -3.719886 -12.122991
v -11.184190 -6.951525 4.040997
v -11.184190 -6.951525 -4.040997
v -11.184190 3.719885 4.040997
v -11.184190 3.719885 -4.040997
v 10.886871 -2.452512 5.766352
v 10.886871 2.390741 -5.766352
v 10.886873 -3.398578 1.922117
v 10.886873 -3.398578 -1.922117
v 10.886871 2.390741 5.766352
v 10.886871 -2.452512 -5.766352
v 10.886871 2.390741 1.922117
v 10.886871 2.390741 -1.922117
v -21.805931 4.192491 -4.939919
v -21.805931 4.192491 -14.819757
v -21.805931 -4.192491 -14.819757
v -21.805931 -4.192491 4.939919
v -21.805931 -4.192491 14.819757
v -21.805931 4.192491 14.819757
v -21.805931 4.192491 4.939918
v -21.805931 -4.192491 -4.939918
v -23.624853 3.112111 -6.787039
v -23.624853 3.112111 -12.972636
v -23.624853 -3.112111 -12.972636
v -23.624853 -3.112111 6.787039
v -23.624853 -3.112111 12.972636
v -23.624853 3.112111 12.972636
v -23.624853 3.112111 6.787038
v -23.624853 -3.112111 -6.787038
v -21.805931 1.397497 -14.819757
v -21.805931 -1.397497 -14.819757
v -21.805931 -1.397497 14.819757
v -21.805931 1.397497 14.819757
v 21.805931 -0.750672 3.747090
v 21.805931 0.750672 3.747090
v 21.805931 -0.750672 -3.747090
v 21.805931 0.750672 -3.747090
v 21.805931 -0.750672 1.249030
v 21.805931 0.750672 1.249030
v 21.805931 -0.750672 -1.249030
v 21.805931 0.750672 -1.249030
v -21.805931 -1.397497 -4.939919
v -21.805931 1.397497 -4.939919
v -21.805931 -1.397497 4.939919
v -21.805931 1.397497 4.939918
v -11.184191 -1.239962 -12.122991
v -11.184191 1.239962 -12.122991
v -11.184191 -1.239962 12.122991
v -11.184191 1.239962 12.122991
v -11.184190 0.162748 -4.040997
v -11.184190 -3.394388 -4.040997
v -11.184190 0.162748 4.040997
v -11.184190 -3.394388 4.040997
v 10.886871 -0.838094 -5.766352
v 10.886871 0.776324 -5.766352
v 10.886871 -0.838094 5.766352
v 10.886871 0.776324 5.766352
v -21.805931 1.037370 -12.972636
v -21.805931 -1.037370 -12.972636
v -21.805931 -1.037370 12.972636
v -21.805931 1.037370 12.972636
v -21.805931 -1.037370 -6.787039
v -21.805931 1.037370 -6.787039
v -21.805931 -1.037370 6.787039
v -21.805931 1.037370 6.787038
v -23.624853 1.037370 -12.972636
v -23.624853 -1.037370 -12.972636
v -23.624853 -1.037370 12.972636
v -23.624853 1.037370 12.972636
v -23.624853 -1.037370 -6.787039
v -23.624853 1.037370 -6.787039
v -23.624853 -1.037370 6.787039
v -23.624853 1.037370 6.787038
v -2.455644 3.194243 9.609101
v -2.455644 -3.218671 -9.609101
v -2.455643 3.194243 3.203034
v -2.455643 3.194243 -3.203034
v -2.455644 -3.218671 9.609101
v -2.455644 3.194243 -9.609101
v -2.455643 -5.546424 3.203034
v -2.455643 -5.546424 -3.203034
v -2.455644 1.056605 9.609101
v -2.455644 -1.081033 9.609101
v -2.455644 1.056605 -9.609101
v -2.455644 -1.081033 -9.609101
v -10.836097 -8.088006 4.040997
v -10.836097 -8.088006 -4.040997
v -2.107549 -8.170269 3.203034
v -2.107549 -8.170269 -3.203034
v 23.884193 -0.750672 1.249030
v 23.884193 0.750672 1.249030
v 23.884193 -0.750672 -1.249030
v 23.884193 0.750672 -1.249030
vn -0.0000 1.0000 -0.0000
vn 0.1818 -0.0000 0.9833
vn 1.0000 -0.0000 -0.0000
vn 0.2461 -0.0000 -0.9692
vn 0.0127 0.9999 -0.0000
vn -0.0757 -0.9814 -0.1766
vn -0.0757 -0.9814 0.1766
vn -0.0000 -1.0000 -0.0000
vn 0.0445 0.9990 -0.0000
vn 0.0942 0.0174 -0.9954
vn 0.1683 -0.9203 0.3531
vn 0.1683 -0.9203 -0.3531
vn 0.2768 -0.0000 -0.9609
vn 0.2461 -0.0000 0.9692
vn -0.0843 -0.0000 0.9964
vn -0.0843 -0.0000 -0.9964
vn -1.0000 -0.0000 -0.0000
vn 0.1818 -0.0000 -0.9833
vn 0.0790 -0.9860 -0.1471
vn 0.0790 -0.9860 0.1471
vn 0.1044 -0.9945 -0.0000
vn 0.0601 0.9982 -0.0000
vn 0.2768 -0.0000 0.9609
vn -0.0000 -0.0000 -1.0000
vn -0.0000 -0.0000 1.0000
vn 0.1603 -0.9403 -0.3003
vn 0.1603 -0.9403 0.3003
vn 0.1589 -0.9873 -0.0000
vn -0.0094 -1.0000 -0.0000
vn 0.9913 0.1315 -0.0000
vn -0.9562 -0.2929 -0.0000
vn 0.0942 0.0174 0.9954
vt 0.407212 0.015580
vt 0.592788 0.015580
vt 0.407212 0.234420
vt 0.592788 0.234420
vt 0.375000 0.750000
vt 0.625000 0.750000
vt 0.375000 0.500000
vt 0.625000 0.500000
vt 0.407212 0.182247
vt 0.407212 0.067753
vt 0.592788 0.067753
vt 0.592788 0.182247
vt 0.375000 0.666667
vt 0.375000 0.583333
vt 0.625000 0.583333
vt 0.625000 0.666667
vt 0.375000 0.310888
vt 0.185888 0.500000
vt 0.814112 0.500000
vt 0.625000 0.310888
vt 0.375000 0.939112
vt 0.185888 0.750000
vt 0.814112 0.750000
vt 0.625000 0.939112
vt 0.814112 0.583333
vt 0.814112 0.666667
vt 0.185888 0.583333
vt 0.185888 0.666667
vt 0.625000 0.437408
vt 0.687592 0.500000
vt 0.312408 0.750000
vt 0.375000 0.812592
vt 0.687592 0.583333
vt 0.687592 0.666667
vt 0.312408 0.500000
vt 0.375000 0.437408
vt 0.625000 0.812592
vt 0.687592 0.750000
vt 0.312408 0.583333
vt 0.312408 0.666667
vt 0.125000 0.666667
vt 0.375000 0.083333
vt 0.125000 0.750000
vt 0.375000 0.000000
vt 0.375000 1.000000
vt 0.625000 1.000000
vt 0.875000 0.750000
vt 0.625000 0.000000
vt 0.875000 0.583333
vt 0.625000 0.166667
vt 0.875000 0.500000
vt 0.625000 0.250000
vt 0.125000 0.500000
vt 0.375000 0.250000
vt 0.125000 0.583333
vt 0.375000 0.166667
vt 0.875000 0.666667
vt 0.625000 0.083333
vt 0.407212 0.067753
vt 0.407212 0.015580
vt 0.592788 0.015580
vt 0.592788 0.182247
vt 0.592788 0.234420
vt 0.407212 0.234420
vt 0.407212 0.182247
vt 0.592788 0.067753
vt 0.458333 0.000000
vt 0.458333 1.000000
vt 0.541667 0.000000
vt 0.541667 1.000000
vt 0.541667 0.250000
vt 0.458333 0.250000
vt 0.541667 0.500000
vt 0.458333 0.500000
vt 0.541667 0.750000
vt 0.458333 0.750000
vt 0.541667 0.583333
vt 0.458333 0.583333
vt 0.541667 0.666667
vt 0.458333 0.666667
vt 0.541667 0.083333
vt 0.708333 0.472222
vt 0.458333 0.083333
vt 0.541667 0.277778
vt 0.541667 0.166667
vt 0.708333 0.444444
vt 0.458333 0.166667
vt 0.541667 0.305556
vt 0.541667 0.939112
vt 0.458333 0.939112
vt 0.541667 0.310888
vt 0.458333 0.310888
vt 0.395296 0.666667
vt 0.604704 0.666667
vt 0.395296 0.583333
vt 0.604704 0.583333
vt 0.541667 0.812592
vt 0.458333 0.812592
vt 0.541667 0.437408
vt 0.458333 0.437408
vt 0.469071 0.015580
vt 0.530929 0.015580
vt 0.530929 0.234420
vt 0.469071 0.234420
vt 0.530929 0.067753
vt 0.469071 0.067753
vt 0.530929 0.182247
vt 0.469071 0.182247
vt 0.469071 0.015580
vt 0.530929 0.015580
vt 0.530929 0.234420
vt 0.469071 0.234420
vt 0.530929 0.067753
vt 0.469071 0.067753
vt 0.530929 0.182247
vt 0.469071 0.182247
vt 0.375000 0.360923
vt 0.235923 0.500000
vt 0.625000 0.889077
vt 0.764077 0.750000
vt 0.235923 0.583333
vt 0.235923 0.666667
vt 0.625000 0.360923
vt 0.764077 0.500000
vt 0.375000 0.889077
vt 0.235923 0.750000
vt 0.764077 0.583333
vt 0.764077 0.666667
vt 0.458333 0.360923
vt 0.541667 0.360923
vt 0.458333 0.889077
vt 0.541667 0.889077
vt 0.814112 0.583333
vt 0.814112 0.666667
vt 0.764077 0.583333
vt 0.764077 0.666667
vt 0.541667 0.583333
vt 0.458333 0.583333
vt 0.541667 0.666667
vt 0.458333 0.666667
s 0
usemtl Material
f 75/99/2 25/29/2 8/8/2 53/73/2
f 59/79/3 16/16/3 6/6/3 55/75/3
f 65/89/4 20/24/4 35/46/4 50/70/4
f 32/40/5 13/13/5 5/5/5 26/31/5
f 22/26/6 40/57/6 35/47/6 20/23/6
f 18/19/7 37/51/7 36/49/7 21/25/7
f 29/35/5 7/7/5 14/14/5 31/39/5
f 53/73/3 8/8/3 15/15/3 57/77/3
f 38/53/9 17/18/9 23/27/9 39/55/9
f 97/124/11 18/19/11 21/25/11 99/127/11
f 100/128/12 22/26/12 20/23/12 94/120/12
f 33/41/9 24/28/9 19/22/9 34/43/9
f 104/132/13 94/119/13 20/24/13 65/89/13
f 51/71/14 37/52/14 18/20/14 67/91/14
f 70/94/15 61/82/15 40/57/15 22/26/15
f 72/96/16 21/25/16 36/49/16 63/86/16
f 55/75/18 6/6/18 30/37/18 73/97/18
f 16/16/19 28/34/19 30/38/19 6/6/19
f 8/8/20 25/30/20 27/33/20 15/15/20
f 93/118/22 29/35/22 31/39/22 95/121/22
f 96/122/22 32/40/22 26/31/22 98/126/22
f 102/130/23 97/123/23 25/29/23 75/99/23
f 1/1/17 10/10/17 33/42/17 34/44/17
f 77/101/17 1/1/17 34/44/17 49/67/17
f 4/4/17 12/12/17 36/50/17 37/52/17
f 79/103/17 4/4/17 37/52/17 51/71/17
f 9/9/17 3/3/17 38/54/17 39/56/17
f 11/11/17 2/2/17 35/48/17 40/58/17
f 81/105/17 11/11/17 40/58/17 61/81/17
f 84/108/17 9/9/17 39/56/17 64/87/17
f 12/12/17 83/107/17 63/85/17 36/50/17
f 10/10/17 82/106/17 62/83/17 33/42/17
f 3/3/17 80/104/17 52/72/17 38/54/17
f 2/2/17 78/102/17 50/69/17 35/48/17
f 93/117/23 101/129/23 76/100/23 29/36/23
f 5/5/18 56/76/18 74/98/18 26/32/18
f 24/28/17 69/93/17 71/95/17 23/27/17
f 23/27/16 71/95/16 64/88/16 39/56/16
f 24/28/15 33/42/15 62/84/15 69/93/15
f 38/54/14 52/72/14 68/92/14 17/17/14
f 98/125/13 103/131/13 66/90/13 19/21/13
f 7/7/3 54/74/3 58/78/3 14/14/3
f 19/21/4 66/90/4 49/68/4 34/45/4
f 13/13/3 60/80/3 56/76/3 5/5/3
f 29/36/2 76/100/2 54/74/2 7/7/2
f 26/32/13 74/98/13 103/131/13 98/125/13
f 17/17/23 68/92/23 101/129/23 93/117/23
f 67/91/23 18/20/23 97/123/23 102/130/23
f 24/28/22 96/122/22 98/126/22 19/22/22
f 17/18/22 93/118/22 95/121/22 23/27/22
f 73/97/13 30/37/13 94/119/13 104/132/13
f 28/34/26 100/128/26 94/120/26 30/38/26
f 25/30/27 97/124/27 99/127/27 27/33/27
usemtl Material.001
f 10/10/1 1/1/1 42/60/1 41/59/1
f 12/12/8 4/4/8 45/63/8 44/62/8
f 22/26/10 100/128/10 108/136/10 106/134/10
f 70/94/17 22/26/17 21/25/17 72/96/17
f 91/115/17 44/62/17 45/63/17 87/111/17
f 86/110/17 43/61/17 48/66/17 89/113/17
f 83/107/24 12/12/24 44/62/24 91/115/24
f 2/2/8 11/11/8 48/66/8 43/61/8
f 80/104/25 3/3/25 46/64/25 88/112/25
f 78/102/24 2/2/24 43/61/24 86/110/24
f 82/106/25 10/10/25 41/59/25 90/114/25
f 3/3/1 9/9/1 47/65/1 46/64/1
f 11/11/25 81/105/25 89/113/25 48/66/25
f 81/105/25 82/106/25 90/114/25 89/113/25
f 1/1/24 77/101/24 85/109/24 42/60/24
f 77/101/24 78/102/24 86/110/24 85/109/24
f 4/4/25 79/103/25 87/111/25 45/63/25
f 79/103/25 80/104/25 88/112/25 87/111/25
f 9/9/24 84/108/24 92/116/24 47/65/24
f 84/108/24 83/107/24 91/115/24 92/116/24
f 42/60/17 85/109/17 90/114/17 41/59/17
f 85/109/17 86/110/17 89/113/17 90/114/17
f 47/65/17 92/116/17 88/112/17 46/64/17
f 92/116/17 91/115/17 87/111/17 88/112/17
f 58/78/25 57/77/25 109/137/25 110/138/25
f 107/135/29 105/133/29 106/134/29 108/136/29
f 100/128/30 99/127/30 107/135/30 108/136/30
f 21/25/31 22/26/31 106/134/31 105/133/31
f 99/127/32 21/25/32 105/133/32 107/135/32
f 110/138/3 109/137/3 111/139/3 112/140/3
f 60/80/1 58/78/1 110/138/1 112/140/1
f 57/77/8 59/79/8 111/139/8 109/137/8
f 59/79/24 60/80/24 112/140/24 111/139/24
usemtl Material.002
f 31/39/5 14/14/5 13/13/5 32/40/5
f 57/77/3 15/15/3 16/16/3 59/79/3
f 15/15/21 27/33/21 28/34/21 16/16/21
f 95/121/22 31/39/22 32/40/22 96/122/22
f 83/107/17 84/108/17 64/87/17 63/85/17
f 82/106/17 81/105/17 61/81/17 62/83/17
f 80/104/17 79/103/17 51/71/17 52/72/17
f 78/102/17 77/101/17 49/67/17 50/69/17
f 101/129/23 102/130/23 75/99/23 76/100/23
f 56/76/18 55/75/18 73/97/18 74/98/18
f 69/93/17 70/94/17 72/96/17 71/95/17
f 71/95/16 72/96/16 63/86/16 64/88/16
f 69/93/15 62/84/15 61/82/15 70/94/15
f 52/72/14 51/71/14 67/91/14 68/92/14
f 103/131/13 104/132/13 65/89/13 66/90/13
f 14/14/3 58/78/3 60/80/3 13/13/3
f 54/74/3 53/73/3 57/77/3 58/78/3
f 66/90/4 65/89/4 50/70/4 49/68/4
f 60/80/3 59/79/3 55/75/3 56/76/3
f 76/100/2 75/99/2 53/73/2 54/74/2
f 74/98/13 73/97/13 104/132/13 103/131/13
f 68/92/23 67/91/23 102/130/23 101/129/23
f 23/27/22 95/121/22 96/122/22 24/28/22
f 27/33/28 99/127/28 100/128/28 28/34/28
